<!-- Generated by IcoMoon.io -->
<svg version="1.1" xmlns="http://www.w3.org/2000/svg" width="32" height="32" viewBox="0 0 32 32">
<title>googlescholar</title>
<path fill="#4885ed" d="M14.573 2.727c-0.729 0.488-4.293 2.853-7.917 5.26-3.627 2.405-6.589 4.395-6.589 4.419 0 0.025 0.181 0.147 0.407 0.267 0.223 0.128 3.8 2.111 7.953 4.413l7.541 4.191 0.192-0.099c0.109-0.053 2.892-1.643 6.189-3.523l5.991-3.424 0.036 10.596h3.557v-12.401l-4.613-3.093c-6.219-4.165-11.189-7.448-11.312-7.475-0.060-0.011-0.703 0.383-1.435 0.869zM7.14 22.177l0.019 2.673 8.827 5.292 4.449-2.667 4.443-2.673v-2.643c0-1.456-0.017-2.644-0.036-2.644s-1.757 1.043-3.867 2.321l-4.408 2.661-0.575 0.341-1.76-1.055c-5.019-2.887-6.449-3.76-7.877-4.637l3.495 1.999-2.673-1.613c-0.032-0.011-0.043 1.177-0.036 2.644z"></path>
</svg>
