<!-- Generated by IcoMoon.io -->
<svg version="1.1" xmlns="http://www.w3.org/2000/svg" width="32" height="32" viewBox="0 0 32 32">
<title>quora</title>
<path fill="#b92b27" d="M16.984 24.935c-1.108-2.18-2.407-4.383-4.944-4.383-0.483 0-0.969 0.081-1.412 0.279l-0.861-1.719c1.048-0.904 2.744-1.619 4.924-1.619 3.392 0 5.135 1.639 6.517 3.723 0.817-1.78 1.205-4.187 1.205-7.167 0-7.443-2.325-11.263-7.763-11.263-5.357 0-7.676 3.82-7.676 11.263 0 7.404 2.319 11.185 7.676 11.185 0.853 0 1.627-0.092 2.333-0.3zM18.312 27.531c-1.175 0.316-2.423 0.488-3.657 0.488-7.136 0-14.12-5.692-14.12-13.971 0.001-8.353 6.984-14.048 14.12-14.048 7.255 0 14.171 5.651 14.171 14.049 0 4.672-2.18 8.468-5.347 10.921 1.019 1.531 2.057 2.552 3.536 2.552 1.599 0 2.24-1.22 2.36-2.199h2.076c0.123 1.299-0.536 6.676-6.355 6.676-3.536 0-5.396-2.037-6.795-4.437z"></path>
</svg>
