<!-- Generated by IcoMoon.io -->
<svg version="1.1" xmlns="http://www.w3.org/2000/svg" width="32" height="32" viewBox="0 0 32 32">
<title>wolframlanguage</title>
<path fill="#d10" d="M19.113 16.576c-0.736 0.199-0.82 0.24-1.552 0.449-0.785-0.449-1.476-0.701-2.127-0.617 0.076-0.408 0.201-0.7 0.327-1.067 1.381-0.201 2.407 0.533 3.352 1.235zM26.191 26.177c-0.75 0.752-1.583 1.421-2.484 1.993l-0.059 0.035h-0.008l-4.936-6.152 4.093 0.448c0 0 1.961 0.201 2.409 0 0.411-0.156 2.617-3.265 2.617-3.265s-6.345-4.012-8.512-6.221c0.251-3.725-0.284-8.679-0.284-8.639-1.591 1.593-1.8 1.844-3.392 3.319-0.693-2.251-1.025-3.025-1.719-5.277-2.091 1.719-3.684 4.619-4.827 8.021-0.237 0.262-0.477 0.547-0.708 0.84l-0.027 0.035c-0.149 0.209-0.307 0.417-0.459 0.633-0.308 0.435-0.6 0.9-0.884 1.376-0.2 0.343-0.399 0.693-0.584 1.051-0.084 0.149-0.167 0.308-0.251 0.467-1.217 2.384-2.235 5.052-3.119 7.472-0.917-1.843-1.454-4.015-1.455-6.312v-0c0-3.817 1.517-7.485 4.219-10.187s6.359-4.212 10.176-4.212c0.004 0 0.009 0 0.014 0 3.973 0 7.57 1.609 10.175 4.211l-0-0c2.6 2.61 4.207 6.211 4.208 10.186v0c-0 3.973-1.607 7.571-4.207 10.179l0-0zM16 8.921c1.109-1.068 1.268-1.227 2.335-2.252 0.084 2.043 0.041 3.111-0.084 5.604-0.617-0.611-1.841-1.392-1.841-1.392s-0.241-1.427-0.409-1.96zM21.112 29.54c-8.821 3.191-15.197-2.685-16.556-4.736 0.008-0.019 0.008-0.036 0.008-0.052 1.227-5.185 2.744-11.38 5.179-13.213 1.273-2.208 1.641-5.485 3.924-7.203 0.576 1.717 1.476 5.277 2.093 6.995 2.7 2.701 6.783 6.061 9.528 7.453 0.283 0.16 0.652 1.308 0.652 1.308l-1.1 1.384-11.78-1.183c-0.267-0.027-0.525-0.037-0.792-0.037-0.759 0-1.533 0.097-2.444 0.24 0.576-1.428 1.8-2.581 1.8-2.581s-1.14-0.692-2.007-0.807c0.249-0.576 0.908-1.319 1.065-1.517-0.324 0.116-2.7 1.184-2.943 2.084 1.143 0.285 1.959 0.649 1.959 0.649s-1.265 1.276-1.508 3.483c0 0 3.76-0.575 6.585-0.204 0.084 0.040 0.125 0.040 0.167 0.040l1.469 0.041 4.715 7.848c-0.003 0.005-0.008 0.008-0.014 0.008-0 0-0.001 0-0.001-0h0zM27.315 4.687c-2.897-2.893-6.897-4.684-11.314-4.687h-0.001c-4.243 0-8.309 1.693-11.312 4.687-2.992 3.001-4.685 7.069-4.685 11.313s1.693 8.313 4.684 11.304c2.893 2.902 6.894 4.698 11.314 4.698s8.422-1.796 11.314-4.697l0-0c3.001-2.991 4.683-7.061 4.683-11.304s-1.681-8.312-4.683-11.313z"></path>
</svg>
